<?xml version="1.0" encoding="utf-8"?>
<!-- Generator: Adobe Illustrator 24.0.3, SVG Export Plug-In . SVG Version: 6.00 Build 0)  -->
<svg version="1.0" id="Capa_1" xmlns="http://www.w3.org/2000/svg" xmlns:xlink="http://www.w3.org/1999/xlink" x="0px" y="0px"
	 viewBox="0 0 276.01 84.01" style="enable-background:new 0 0 276.01 84.01;" xml:space="preserve">
<style type="text/css">
	.st0{fill-rule:evenodd;clip-rule:evenodd;fill:#41287B;}
	.st1{fill-rule:evenodd;clip-rule:evenodd;fill:#FFFFFF;}
	.st2{fill-rule:evenodd;clip-rule:evenodd;fill:#74B5C3;}
	.st3{fill:#41287B;}
	.st4{font-family:'MuktaMahee-Bold';}
	.st5{font-size:54.4797px;}
</style>
<g>
	<path class="st0" d="M40.99,71.82c-0.08-0.03-0.16-0.07-0.25-0.12L11.42,56.27c-0.91-0.48-1.45-1.37-1.45-2.4V22.59
		c0-1.03,0.54-1.92,1.45-2.4L40.74,4.76c0.82-0.43,1.71-0.43,2.53,0L72.6,20.19c0.92,0.48,1.45,1.37,1.45,2.4v31.28
		c0,1.03-0.54,1.92-1.45,2.4l-19.19,10.1l5.27,9.14c0.61,1.06,0.46,2.36-0.4,3.24c-0.85,0.88-2.14,1.09-3.22,0.52
		C50.37,76.78,45.68,74.3,40.99,71.82L40.99,71.82z M35.92,16.49l-17.81,9.37v3.69l17.81,9.37v-1.53l-13.84-7.28
		c-0.91-0.48-1.45-1.37-1.45-2.4c0-1.03,0.54-1.92,1.45-2.4l13.84-7.28V16.49L35.92,16.49z M65.91,29.55v-3.69L48.1,16.49v1.53
		l13.84,7.28c0.91,0.48,1.45,1.37,1.45,2.4c0,1.03-0.54,1.92-1.45,2.4L48.1,37.39v1.53L65.91,29.55z"/>
	<polygon class="st1" points="15.39,24.23 28.7,17.23 38.63,12 38.63,19.67 23.35,27.71 38.63,35.75 38.63,43.42 28.7,38.19 
		15.39,31.19 	"/>
	<polygon class="st2" points="45.38,19.67 45.38,12 55.31,17.23 68.62,24.23 68.62,31.19 55.31,38.19 45.38,43.42 45.38,35.75 
		60.67,27.71 	"/>
</g>
<text transform="matrix(1 0 0 1 88.0139 56.0227)" class="st3 st4 st5">Howdoi</text>
</svg>
